<svg width="86" height="74" viewBox="0 0 86 74" fill="none" xmlns="http://www.w3.org/2000/svg">
<g clip-path="url(#clip0)">
<path d="M54.4666 59.7692C54.4666 60.5519 53.8216 61.1923 53.0332 61.1923H18.6332C18.3752 61.1923 18.1315 61.2634 17.9165 61.3915L4.87322 68.948L7.73988 63.2557C7.96922 62.8146 7.94055 62.288 7.68255 61.8753C7.41022 61.4484 6.95155 61.1923 6.44988 61.1923H4.29988C3.51155 61.1923 2.86655 60.5519 2.86655 59.7692V19.923C2.86655 19.1403 3.51155 18.5 4.29988 18.5H35.8332V15.6538H4.29988C1.93488 15.6538 -0.000116983 17.575 -0.000116983 19.923V59.7692C-0.000116983 62.0603 1.83455 63.953 4.12788 64.0384L0.143216 71.9365C-0.14345 72.5057 -0.0144503 73.1746 0.444216 73.6157C0.730883 73.8719 1.07488 74 1.43322 74C1.67688 74 1.93488 73.943 2.14988 73.8007L19.0202 64.0384H53.0332C55.3982 64.0384 57.3332 62.1173 57.3332 59.7692V51.2307H54.4666V59.7692Z" fill="black"/>
<path d="M85.9998 44.1154V4.26923C85.9998 1.92115 84.0648 0 81.6998 0H32.9665C30.6015 0 28.6665 1.92115 28.6665 4.26923V12.8077H31.5332V4.26923C31.5332 3.48654 32.1782 2.84615 32.9665 2.84615H81.6998C82.4882 2.84615 83.1332 3.48654 83.1332 4.26923V44.1154C83.1332 44.8981 82.4882 45.5385 81.6998 45.5385H79.5498C79.0482 45.5385 78.5895 45.7946 78.3315 46.2073C78.0735 46.62 78.0448 47.1465 78.2742 47.5877L81.1408 53.28L68.0975 45.7235C67.8682 45.6096 67.6245 45.5385 67.3665 45.5385H32.9665C32.1782 45.5385 31.5332 44.8981 31.5332 44.1154V21.3462H28.6665V44.1154C28.6665 46.4635 30.6015 48.3846 32.9665 48.3846H66.9795L83.8498 58.1469C84.0648 58.2892 84.3228 58.3462 84.5665 58.3462C84.9248 58.3462 85.2688 58.2181 85.5412 57.9619C85.9998 57.535 86.1288 56.8519 85.8422 56.2827L81.8718 48.3846C84.1652 48.2992 85.9998 46.4065 85.9998 44.1154Z" fill="black"/>
<path d="M58.7664 5.69238C50.8687 5.69238 44.433 12.082 44.433 19.9232V24.1924H43.7164C40.95 24.1924 38.6997 26.4266 38.6997 29.1732C38.6997 31.9197 40.95 34.1539 43.7164 34.1539H45.8664C46.6547 34.1539 47.2997 33.5135 47.2997 32.7308V19.9232C47.2997 13.6474 52.4454 8.53854 58.7664 8.53854C65.0874 8.53854 70.233 13.6474 70.233 19.9232V32.3324L69.1724 34.0828C67.7104 36.502 65.5174 38.3378 62.923 39.3624C62.3784 37.1993 60.4004 35.577 58.0497 35.577C55.2834 35.577 53.033 37.8112 53.033 40.5578V41.2693C53.033 42.052 53.678 42.6924 54.4664 42.6924H61.633C61.7477 42.6924 61.8624 42.6782 61.977 42.6497C66.0477 41.6393 69.4734 39.1205 71.6377 35.5485L72.4834 34.1539H73.8164C76.5827 34.1539 78.833 31.9197 78.833 29.1732C78.833 26.4266 76.5827 24.1924 73.8164 24.1924H73.0997V19.9232C73.0997 12.082 66.664 5.69238 58.7664 5.69238ZM44.433 31.3078H43.7164C42.5267 31.3078 41.5664 30.3543 41.5664 29.1732C41.5664 27.992 42.5267 27.0385 43.7164 27.0385H44.433V31.3078ZM56.0287 39.8462C56.3297 39.0208 57.118 38.4231 58.0497 38.4231C58.9814 38.4231 59.784 39.0208 60.0707 39.8462H56.0287ZM73.8164 27.0385C75.006 27.0385 75.9664 27.992 75.9664 29.1732C75.9664 30.3543 75.006 31.3078 73.8164 31.3078H73.0997V27.0385H73.8164Z" fill="black"/>
<path d="M18.6332 25.6155H7.1665V28.4616H18.6332V25.6155Z" fill="black"/>
<path d="M24.3667 25.6155H21.5V28.4616H24.3667V25.6155Z" fill="black"/>
<path d="M24.3665 32.7307H7.1665V35.5769H24.3665V32.7307Z" fill="black"/>
<path d="M24.3665 39.8462H7.1665V42.6923H24.3665V39.8462Z" fill="black"/>
<path d="M18.6332 46.9614H7.1665V49.8076H18.6332V46.9614Z" fill="black"/>
<path d="M24.3667 46.9614H21.5V49.8076H24.3667V46.9614Z" fill="black"/>
<path d="M24.3665 54.0769H7.1665V56.9231H24.3665V54.0769Z" fill="black"/>
<path d="M42.9996 54.0769H27.2329V56.9231H42.9996V54.0769Z" fill="black"/>
<path d="M50.1667 54.0769H45.8667V56.9231H50.1667V54.0769Z" fill="black"/>
<path d="M56.5449 28.604L55.2549 31.1513C56.3585 31.6921 57.5626 31.9767 58.7666 31.9767C59.9706 31.9767 61.1746 31.7063 62.2782 31.1513L61.0026 28.604C59.5979 29.3013 57.9352 29.3013 56.5449 28.604Z" fill="black"/>
<path d="M49.5215 22.9115L50.8115 25.4588C52.2018 24.7615 53.8645 24.7615 55.2548 25.4588L56.5448 22.9115C54.3375 21.83 51.7288 21.83 49.5215 22.9115Z" fill="black"/>
<path d="M66.7216 25.4731L68.0116 22.9258C65.8186 21.8301 63.1956 21.8301 60.9883 22.9258L62.2783 25.4731C63.6686 24.7758 65.3313 24.7758 66.7216 25.4731Z" fill="black"/>
</g>
<defs>
<clipPath id="clip0">
<rect width="86" height="74" fill="white"/>
</clipPath>
</defs>
</svg>
