<svg width="86" height="86" viewBox="0 0 86 86" fill="none" xmlns="http://www.w3.org/2000/svg">
<path d="M84.5667 77.4H81.7V47.3C81.7 44.935 79.765 43 77.4 43H40.1333V40.1333C40.1333 37.7683 38.1983 35.8333 35.8333 35.8333H22.9333V29.799C28.1937 27.1187 31.5333 21.7007 31.5333 15.7667C31.5333 15.5803 31.5047 15.4083 31.433 15.2363L26.058 1.806C25.628 0.702333 24.5817 0 23.392 0H22.9333C21.3567 0 20.0667 1.29 20.0667 2.86667V15.523C20.0667 17.8593 18.361 19.8373 16.1967 20.0523C14.964 20.167 13.7887 19.78 12.8713 18.9487C11.9827 18.1317 11.4667 16.9707 11.4667 15.7667V2.86667C11.4667 1.29 10.1767 0 8.6 0H8.14133C6.95167 0 5.90533 0.702333 5.47533 1.806L0.100333 15.2363C0.0286667 15.4083 0 15.5803 0 15.7667C0 21.715 3.33967 27.1187 8.6 29.799V35.8333H4.3C1.935 35.8333 0 37.7683 0 40.1333V81.7C0 84.065 1.935 86 4.3 86H10.0333H21.5H35.8333H78.8333C82.7893 86 86 82.7893 86 78.8333C86 78.045 85.355 77.4 84.5667 77.4ZM77.4 45.8667C78.1883 45.8667 78.8333 46.5117 78.8333 47.3V77.4H75.9667V50.1667C75.9667 49.3783 75.3217 48.7333 74.5333 48.7333H40.1333C39.345 48.7333 38.7 49.3783 38.7 50.1667V77.4H35.8333V47.3C35.8333 46.5117 36.4783 45.8667 37.2667 45.8667H77.4ZM73.1 51.6V77.4H41.5667V51.6H73.1ZM2.86667 16.039L8.14133 2.86667H8.6V15.7667C8.6 17.7877 9.46 19.7083 10.9507 21.07C12.4413 22.4317 14.448 23.091 16.469 22.9047C20.0953 22.5607 22.9333 19.3213 22.9333 15.523V2.86667H23.392L28.6667 16.039C28.5663 21.0557 25.5563 25.5707 20.9267 27.5917C20.4107 27.821 20.0667 28.337 20.0667 28.9103V35.8333H11.4667V28.896C11.4667 28.3227 11.137 27.8067 10.6067 27.5773C5.99133 25.5707 2.967 21.0557 2.86667 16.039ZM22.9333 81.7C22.9333 82.4883 22.2883 83.1333 21.5 83.1333H10.0333C9.245 83.1333 8.6 82.4883 8.6 81.7V58.7667C8.6 57.9783 9.245 57.3333 10.0333 57.3333V58.7667C10.0333 60.3433 11.3233 61.6333 12.9 61.6333H18.6333C20.21 61.6333 21.5 60.3433 21.5 58.7667V57.3333C22.2883 57.3333 22.9333 57.9783 22.9333 58.7667V81.7ZM12.9 58.7667V57.3333H18.6333V58.7667H12.9ZM25.542 83.1333C25.6997 82.689 25.8 82.2017 25.8 81.7V58.7667C25.8 56.4017 23.865 54.4667 21.5 54.4667H10.0333C7.66833 54.4667 5.73333 56.4017 5.73333 58.7667V81.7C5.73333 82.2017 5.83367 82.689 5.99133 83.1333H4.3C3.51167 83.1333 2.86667 82.4883 2.86667 81.7V40.1333C2.86667 39.345 3.51167 38.7 4.3 38.7H35.8333C36.6217 38.7 37.2667 39.345 37.2667 40.1333V43C34.9017 43 32.9667 44.935 32.9667 47.3V77.4H30.1C29.3117 77.4 28.6667 78.045 28.6667 78.8333C28.6667 80.453 29.2257 81.9293 30.143 83.1333H25.542ZM78.8333 83.1333H35.8333C33.97 83.1333 32.3647 81.9293 31.777 80.2667H82.8897C82.302 81.9293 80.6967 83.1333 78.8333 83.1333Z" fill="black"/>
<path d="M21.5 40.1333H18.6333V43H21.5V40.1333Z" fill="black"/>
<path d="M48.7333 73.0999H64.5C68.456 73.0999 71.6667 69.8892 71.6667 65.9332C71.6667 62.0776 68.5993 58.9242 64.7867 58.7666C63.2673 56.1149 60.4437 54.4666 57.3333 54.4666C53.0763 54.4666 49.536 57.5769 48.848 61.6332C45.6947 61.5759 43 64.1702 43 67.3666C43 70.5342 45.5657 73.0999 48.7333 73.0999ZM48.7333 64.4999C49.0487 64.4999 49.364 64.5572 49.708 64.6862C50.1523 64.8439 50.654 64.7722 51.041 64.4999C51.428 64.2132 51.643 63.7689 51.6287 63.2816C51.6287 63.2386 51.6143 63.1096 51.6 63.0666C51.6 59.8989 54.1657 57.3332 57.3333 57.3332C59.6267 57.3332 61.705 58.7092 62.608 60.8162C62.8517 61.3896 63.4393 61.7479 64.07 61.6762L64.3137 61.6476C64.371 61.6476 64.4283 61.6332 64.5 61.6332C66.865 61.6332 68.8 63.5682 68.8 65.9332C68.8 68.2982 66.865 70.2332 64.5 70.2332H48.7333C47.1567 70.2332 45.8667 68.9432 45.8667 67.3666C45.8667 65.7899 47.1567 64.4999 48.7333 64.4999Z" fill="black"/>
<path d="M84.5667 14.3333C83.3771 14.3333 82.4024 13.674 81.9581 12.5847C81.4994 11.4953 81.7287 10.3487 82.5744 9.503C82.8467 9.23067 82.9901 8.87233 82.9901 8.48533C82.9901 8.09833 82.8467 7.74 82.5744 7.46767L78.5181 3.41133C77.9591 2.86667 77.0417 2.86667 76.4827 3.42567C75.6514 4.257 74.4904 4.48633 73.4011 4.042C72.3261 3.59767 71.6667 2.60867 71.6667 1.43333C71.6667 0.645 71.0217 0 70.2334 0H64.5001C63.7117 0 63.0667 0.645 63.0667 1.43333C63.0667 2.60867 62.4074 3.59767 61.3181 4.042C60.2287 4.50067 59.0821 4.27133 58.2364 3.42567C57.6774 2.86667 56.7744 2.86667 56.2154 3.42567L52.1591 7.482C51.8867 7.75433 51.7434 8.11267 51.7434 8.49967C51.7434 8.87233 51.8867 9.245 52.1591 9.51733C52.9904 10.3487 53.2197 11.5097 52.7754 12.599C52.3311 13.674 51.3564 14.3333 50.1667 14.3333C49.3784 14.3333 48.7334 14.9783 48.7334 15.7667V21.5C48.7334 22.2883 49.3784 22.9333 50.1667 22.9333C51.3421 22.9333 52.3311 23.5927 52.7754 24.682C53.2341 25.7713 53.0047 26.9323 52.1591 27.7637C51.6001 28.3227 51.6001 29.2257 52.1591 29.7847L56.2154 33.841C56.7744 34.4 57.6774 34.4 58.2364 33.841C59.0677 33.0097 60.2144 32.7803 61.3181 33.2247C62.4074 33.6833 63.0667 34.658 63.0667 35.8333C63.0667 36.6217 63.7117 37.2667 64.5001 37.2667H70.2334C71.0217 37.2667 71.6667 36.6217 71.6667 35.8333C71.6667 34.658 72.3261 33.669 73.4154 33.2247C74.5047 32.766 75.6657 32.9953 76.4971 33.841C77.0561 34.4 77.9591 34.4 78.5181 33.841L82.5744 29.7847C83.1334 29.2257 83.1334 28.3227 82.5744 27.7637C81.7431 26.9323 81.5137 25.7713 81.9581 24.682C82.4167 23.5927 83.3914 22.9333 84.5667 22.9333C85.3551 22.9333 86.0001 22.2883 86.0001 21.5V15.7667C86.0001 14.9783 85.3551 14.3333 84.5667 14.3333ZM79.3064 23.5783C78.5897 25.284 78.7474 27.133 79.6504 28.638L77.3714 30.917C75.8521 30.014 74.0174 29.8707 72.3117 30.573C70.6061 31.2753 69.4021 32.68 68.9721 34.4H65.7614C65.3314 32.68 64.1274 31.2897 62.4217 30.573C60.7161 29.8707 58.8671 30.014 57.3621 30.917L55.0831 28.638C55.9861 27.1187 56.1294 25.284 55.4271 23.5783C54.7247 21.8727 53.3201 20.6687 51.6001 20.2387V17.028C53.3201 16.598 54.7104 15.394 55.4271 13.6883C56.1294 11.9827 55.9861 10.1337 55.0831 8.62867L57.3621 6.34967C58.8814 7.25267 60.7161 7.396 62.4217 6.69367C64.1274 5.977 65.3314 4.58667 65.7614 2.86667H68.9721C69.4021 4.58667 70.6061 5.977 72.3117 6.69367C74.0174 7.396 75.8664 7.25267 77.3714 6.34967L79.6504 8.62867C78.7474 10.148 78.6041 11.9827 79.3064 13.6883C80.0087 15.394 81.4134 16.598 83.1334 17.028V20.2387C81.4134 20.6687 80.0231 21.8727 79.3064 23.5783Z" fill="black"/>
<path d="M67.3668 8.6001C61.8342 8.6001 57.3335 13.1008 57.3335 18.6334C57.3335 24.1661 61.8342 28.6668 67.3668 28.6668C72.8995 28.6668 77.4002 24.1661 77.4002 18.6334C77.4002 13.1008 72.8995 8.6001 67.3668 8.6001ZM67.3668 25.8001C63.4108 25.8001 60.2002 22.5894 60.2002 18.6334C60.2002 14.6774 63.4108 11.4668 67.3668 11.4668C71.3228 11.4668 74.5335 14.6774 74.5335 18.6334C74.5335 22.5894 71.3228 25.8001 67.3668 25.8001Z" fill="black"/>
<path d="M47.2998 17.2H44.4331V20.0666H47.2998V17.2Z" fill="black"/>
<path d="M41.5669 17.2H38.7002V20.0666H41.5669V17.2Z" fill="black"/>
<path d="M35.8335 17.2H32.9668V20.0666H35.8335V17.2Z" fill="black"/>
<path d="M43 28.6667H40.1333V31.5334H43V28.6667Z" fill="black"/>
<path d="M37.2666 28.6667H34.3999V31.5334H37.2666V28.6667Z" fill="black"/>
<path d="M31.5332 28.6667H28.6665V31.5334H31.5332V28.6667Z" fill="black"/>
<path d="M48.7334 28.6667H45.8667V31.5334H48.7334V28.6667Z" fill="black"/>
</svg>
