<svg width="86" height="86" viewBox="0 0 86 86" fill="none" xmlns="http://www.w3.org/2000/svg">
<path d="M84.5667 40.1333H78.8333V38.7H81.7C82.4883 38.7 83.1333 38.055 83.1333 37.2667V32.9667C83.1333 32.1783 82.4883 31.5333 81.7 31.5333H78.8333V30.1C78.8333 29.3117 78.1883 28.6667 77.4 28.6667H68.8C68.0117 28.6667 67.3667 29.3117 67.3667 30.1V40.1333H62.3213L64.3997 34.9303C64.5 34.6867 64.5287 34.4143 64.4857 34.142L64.1847 32.4937C62.9807 25.886 58.3797 20.554 52.1733 18.318C53.6067 16.4117 54.4667 14.0467 54.4667 11.4667C54.4667 5.14567 49.321 0 43 0C36.679 0 31.5333 5.14567 31.5333 11.4667C31.5333 14.0467 32.3933 16.4117 33.841 18.3323C27.6347 20.554 23.0337 25.9003 21.8297 32.508L21.5287 34.1563C21.4857 34.4287 21.5143 34.701 21.6147 34.9447L23.6787 40.1333H20.0667V35.8333V31.2753C21.7293 30.6877 22.9333 29.111 22.9333 27.2333C22.9333 24.8683 20.9983 22.9333 18.6333 22.9333H4.3C3.51167 22.9333 2.86667 23.5783 2.86667 24.3667V28.9247C1.204 29.5267 0 31.1033 0 32.9667C0 34.0703 0.43 35.0737 1.118 35.8333C0.43 36.593 0 37.5963 0 38.7C0 39.3593 0.157667 39.99 0.43 40.549C0.172 40.807 0 41.1653 0 41.5667V47.3C0 48.0883 0.645 48.7333 1.43333 48.7333H4.3V84.5667C4.3 85.355 4.945 86 5.73333 86H11.4667C12.255 86 12.9 85.355 12.9 84.5667V48.7333H25.843C24.9257 49.9373 24.3667 51.4137 24.3667 53.0333V57.3333H21.5C20.7117 57.3333 20.0667 57.9783 20.0667 58.7667V86H22.9333V60.2H25.8H27.2333H27.692L29.6413 79.9513C29.025 80.8543 28.6667 81.958 28.6667 83.1333V84.5667C28.6667 85.355 29.3117 86 30.1 86H38.7C39.4883 86 40.1333 85.355 40.1333 84.5667V83.1333C40.1333 81.958 39.775 80.8543 39.1587 79.9513L41.108 60.2H44.892L47.0563 79.6647C46.3253 80.625 45.8667 81.829 45.8667 83.1333V84.5667C45.8667 85.355 46.5117 86 47.3 86H55.9C56.6883 86 57.3333 85.355 57.3333 84.5667V83.1333C57.3333 81.829 56.8747 80.625 56.1293 79.6647L58.2937 60.2H60.2H63.0667V86H65.9333V58.7667C65.9333 57.9783 65.2883 57.3333 64.5 57.3333H61.6333V53.0333C61.6333 51.4137 61.0743 49.9373 60.157 48.7333H73.1V84.5667C73.1 85.355 73.745 86 74.5333 86H80.2667C81.055 86 81.7 85.355 81.7 84.5667V48.7333H84.5667C85.355 48.7333 86 48.0883 86 47.3V41.5667C86 40.7783 85.355 40.1333 84.5667 40.1333ZM80.2667 34.4V35.8333H78.8333V34.4H80.2667ZM70.2333 31.5333H75.9667V40.1333H70.2333V31.5333ZM43 2.86667C47.7443 2.86667 51.6 6.72233 51.6 11.4667C51.6 14.0753 50.439 16.3973 48.6043 17.974C48.2317 18.2893 47.8303 18.576 47.4147 18.8197C47.386 18.834 47.3573 18.8627 47.3287 18.877C46.9273 19.1207 46.4973 19.3213 46.053 19.4933C46.01 19.5077 45.967 19.522 45.924 19.5363C45.4797 19.694 45.0353 19.823 44.5767 19.909C44.5337 19.9233 44.4763 19.9233 44.4333 19.9377C43.9603 20.0237 43.4873 20.0667 43 20.0667C42.5127 20.0667 42.0397 20.0237 41.5667 19.9377C41.5237 19.9233 41.4663 19.9233 41.4233 19.909C40.9647 19.823 40.5203 19.694 40.076 19.5363C40.033 19.522 39.99 19.5077 39.947 19.4933C39.5027 19.3213 39.087 19.1207 38.6713 18.877C38.6427 18.8627 38.614 18.834 38.571 18.8197C38.1553 18.576 37.754 18.2893 37.3813 17.974C35.561 16.3973 34.4 14.0753 34.4 11.4667C34.4 6.72233 38.2557 2.86667 43 2.86667ZM24.4097 34.2567L24.639 33.024C25.7283 26.9897 30.2003 22.188 36.0913 20.6257C36.12 20.6543 36.163 20.6687 36.206 20.6973C36.6647 21.0413 37.152 21.3423 37.6537 21.6147C37.668 21.629 37.6823 21.629 37.6967 21.6433C38.1983 21.9013 38.7287 22.1307 39.259 22.317C39.302 22.3313 39.3593 22.36 39.4023 22.3743C39.9183 22.5463 40.463 22.6753 41.022 22.7757C41.1223 22.79 41.2227 22.8043 41.323 22.8187C41.8677 22.876 42.4267 22.9333 43 22.9333C43.5733 22.9333 44.1323 22.876 44.677 22.79C44.7773 22.7757 44.8777 22.7613 44.978 22.747C45.5227 22.6467 46.0673 22.5177 46.5977 22.3457C46.6407 22.3313 46.698 22.317 46.741 22.2883C47.2857 22.102 47.8017 21.887 48.3033 21.6147C48.3177 21.6003 48.332 21.6003 48.3463 21.586C48.848 21.3137 49.3353 20.9983 49.794 20.6687C49.8227 20.64 49.8657 20.6257 49.9087 20.597C55.7997 22.1593 60.2717 26.961 61.361 32.9953L61.5903 34.228L59.2253 40.1333H55.9V27.2333C55.9 26.445 55.255 25.8 54.4667 25.8H31.5333C30.745 25.8 30.1 26.445 30.1 27.2333V40.1333H26.7747L24.4097 34.2567ZM53.0333 40.1333H32.9667V28.6667H53.0333V40.1333ZM2.86667 38.7C2.86667 37.9117 3.51167 37.2667 4.3 37.2667H17.2V40.1333H4.3C3.51167 40.1333 2.86667 39.4883 2.86667 38.7ZM5.73333 25.8H18.6333C19.4217 25.8 20.0667 26.445 20.0667 27.2333C20.0667 28.0217 19.4217 28.6667 18.6333 28.6667H5.73333V25.8ZM4.3 31.5333H17.2V34.4H4.3C3.51167 34.4 2.86667 33.755 2.86667 32.9667C2.86667 32.1783 3.51167 31.5333 4.3 31.5333ZM10.0333 83.1333H7.16667V48.7333H10.0333V83.1333ZM33.6403 54.5383C33.6977 54.524 33.7693 54.524 33.841 54.524C34.1133 54.481 34.3713 54.481 34.6293 54.4953C34.7297 54.4953 34.8157 54.5097 34.9017 54.524C35.131 54.5527 35.3603 54.61 35.5897 54.6673C35.6757 54.696 35.7617 54.7103 35.8477 54.7533C36.1343 54.868 36.4353 55.0113 36.6933 55.1977C36.7077 55.212 36.7077 55.212 36.722 55.2263C36.9657 55.3983 37.1807 55.599 37.367 55.814C37.4387 55.9 37.496 55.986 37.5677 56.072C37.6967 56.244 37.8113 56.4017 37.9117 56.588C37.9547 56.674 37.9977 56.76 38.0407 56.846C38.141 57.061 38.2127 57.2903 38.27 57.5197C38.2843 57.577 38.2987 57.6343 38.313 57.6917C38.3703 58.007 38.399 58.3223 38.3847 58.6377L36.4927 77.8013C36.4067 77.7727 36.3207 77.7583 36.2347 77.7297C35.991 77.6437 35.733 77.5577 35.475 77.5147C35.432 77.5003 35.389 77.5147 35.3603 77.5003C35.045 77.443 34.7297 77.4 34.4 77.4C34.0703 77.4 33.755 77.443 33.4397 77.5003C33.3967 77.5147 33.3537 77.5003 33.325 77.5147C33.067 77.5577 32.809 77.6437 32.5653 77.7297C32.4793 77.7583 32.3933 77.7727 32.3073 77.8013L30.4153 58.6807C30.358 57.577 30.745 56.5163 31.5047 55.7137C31.949 55.2407 32.4937 54.911 33.0813 54.7103C33.2677 54.653 33.454 54.5813 33.6403 54.5383ZM31.5333 83.1333C31.5333 82.4453 31.7913 81.8147 32.1927 81.3273C32.1927 81.313 32.207 81.313 32.207 81.313C33.3107 79.9943 35.4607 79.9943 36.5787 81.313L36.593 81.3273C37.0087 81.8147 37.2667 82.4453 37.2667 83.1333H31.5333ZM50.8403 54.5383C50.8977 54.524 50.9693 54.524 51.0267 54.524C51.299 54.481 51.557 54.481 51.815 54.4953C51.9153 54.4953 52.0013 54.5097 52.0873 54.524C52.3167 54.5527 52.546 54.61 52.7753 54.6673C52.8613 54.696 52.9473 54.7103 53.0333 54.7533C53.3343 54.868 53.6067 55.0113 53.879 55.1977C53.8933 55.212 53.8933 55.212 53.9077 55.2263C54.1513 55.3983 54.3663 55.599 54.5527 55.814C54.6243 55.9 54.6817 55.986 54.7533 56.072C54.8823 56.244 54.997 56.416 55.0973 56.588C55.1403 56.674 55.1833 56.76 55.2263 56.846C55.3267 57.0753 55.4127 57.3047 55.47 57.5483C55.4843 57.5913 55.4987 57.6343 55.513 57.6917C55.5703 58.007 55.599 58.3223 55.5847 58.652L53.4633 77.7153C53.3057 77.658 53.148 77.6293 52.9903 77.6007C52.8757 77.572 52.761 77.5433 52.6463 77.5147C52.374 77.4717 52.1017 77.443 51.8293 77.4287C51.7577 77.4143 51.686 77.4 51.6 77.4C51.514 77.4 51.4423 77.4143 51.3707 77.4287C51.0983 77.443 50.826 77.4573 50.5537 77.5147C50.439 77.529 50.3243 77.572 50.2097 77.6007C50.052 77.6437 49.8943 77.658 49.7367 77.7153L47.6153 58.6807C47.558 57.577 47.945 56.5163 48.7047 55.7137C49.149 55.2407 49.6937 54.911 50.2813 54.7103C50.4677 54.653 50.654 54.5813 50.8403 54.5383ZM48.7333 83.1333C48.7333 82.3163 49.0773 81.5853 49.6363 81.055C50.7113 80.0373 52.503 80.0373 53.578 81.055C54.1227 81.5853 54.4667 82.3163 54.4667 83.1333H48.7333ZM58.7667 53.0333V57.3333H58.3653C58.3367 57.1183 58.2507 56.932 58.2077 56.7313C58.1503 56.502 58.1073 56.287 58.0357 56.0577C57.921 55.771 57.7777 55.4987 57.6343 55.2263C57.5627 55.0973 57.5197 54.9683 57.448 54.8393C56.975 54.0653 56.33 53.3917 55.556 52.8327C55.5273 52.804 55.4843 52.7897 55.4557 52.7753C55.1403 52.5603 54.825 52.3883 54.481 52.2307C54.395 52.1877 54.2947 52.1447 54.2087 52.116C53.836 51.9583 53.449 51.8293 53.0477 51.7433C53.019 51.7433 52.9903 51.729 52.9617 51.729C52.5603 51.643 52.1447 51.6143 51.729 51.6C51.6717 51.6143 51.6287 51.6 51.6 51.6C51.5857 51.6 51.557 51.6 51.5427 51.6C51.127 51.6 50.697 51.643 50.2813 51.729C50.224 51.7433 50.1667 51.7577 50.1093 51.772C49.6363 51.8723 49.1633 52.0157 48.6903 52.202C46.612 53.0763 45.1787 55.0257 44.8347 57.3333H41.1797C41.151 57.1183 41.065 56.932 41.022 56.7313C40.9647 56.502 40.9217 56.287 40.85 56.0577C40.7353 55.771 40.592 55.4987 40.4487 55.2263C40.377 55.0973 40.334 54.9683 40.2623 54.8393C39.7893 54.0653 39.1443 53.3917 38.3703 52.8327C38.3417 52.804 38.2987 52.7897 38.2557 52.761C37.9403 52.546 37.625 52.374 37.2953 52.2163C37.2093 52.1733 37.109 52.1303 37.023 52.0873C36.6503 51.9297 36.2633 51.8007 35.862 51.729C35.8333 51.7147 35.8047 51.7147 35.7617 51.7147C35.3603 51.6287 34.9447 51.6 34.529 51.5857C34.4717 51.6143 34.4287 51.6 34.4 51.6C34.3857 51.6 34.357 51.6 34.3427 51.6C33.927 51.6 33.497 51.643 33.0813 51.729C33.024 51.7433 32.9667 51.7577 32.9093 51.772C32.4363 51.8723 31.9633 52.0157 31.4903 52.202C29.412 53.0763 27.9787 55.0257 27.6347 57.3333H27.2333V53.0333C27.2333 50.6683 29.1683 48.7333 31.5333 48.7333H54.4667C56.8317 48.7333 58.7667 50.6683 58.7667 53.0333ZM78.8333 83.1333H75.9667V48.7333H78.8333V83.1333ZM83.1333 45.8667H80.2667H74.5333H54.4667H31.5333H11.4667H5.73333H2.86667V43H4.3H18.6333H25.8H31.5333H54.4667H60.2H68.8H77.4H83.1333V45.8667Z" fill="black"/>
</svg>
